<?xml version="1.0" encoding="UTF-8"?>
<svg id="Layer_1" data-name="Layer 1" xmlns="http://www.w3.org/2000/svg" viewBox="0 0 1812.1 752.59">
  <g>
    <path d="M221.47,365.15c.94-3.46,4.71-4.4,5.97-4.71,61.26-15.08,88.9-87.02,88.9-136.97,0-65.66-47.44-120-123.15-120-80.11,0-148.28,60.94-148.28,134.14,0,37.38,17.91,68.48,49.64,68.48,22.62,0,32.67-16.02,32.67-28.59,0-4.71-.31-6.91-2.83-9.42,3.77-3.46,8.48-5.34,12.88-5.34,7.85,0,14.76,5.65,14.76,16.65,0,24.5-29.53,38.64-58.75,38.64-43.98,0-79.79-32.04-79.79-86.71,0-83.88,86.71-142.94,180.64-142.94,98.96,0,155.5,65.66,155.5,139.48,0,62.83-42.1,125.35-102.73,144.51,1.57,61.26,49.32,188.8,127.23,188.8,29.22,0,40.84-17.28,40.84-31.73,0-11.62-7.54-19.48-16.02-19.48h-.63c2.51-9.42,10.68-16.96,21.05-16.96,8.17,0,23.56,4.4,23.56,22.3,0,32.99-39.27,62.83-89.22,62.83-84.19,0-132.88-100.53-132.88-194.77,0-5.97,0-12.25.63-18.54v.31ZM122.83,441.48c.31-2.51,1.26-5.34,1.57-7.85.31-2.51,1.57-3.46,4.08-3.46,13.51,0,18.85-12.57,22.3-27.33,5.03-22.62,28.9-149.22,32.04-171.52.63-3.77.94-7.85.94-11.31,0-10.37-3.14-17.28-14.45-17.28-.94,0-2.51-.31-2.2-2.51.31-2.51,1.26-5.34,1.57-7.85.31-2.2,1.89-3.14,3.77-3.46,10.68,1.26,22.93,1.57,34.56,1.57s24.19-.31,36.44-1.57c1.26,0,2.2.94,1.88,2.83-.31,2.51-1.26,5.03-1.57,7.54s-1.57,3.46-4.08,3.46c-13.82,0-18.85,12.57-22.3,27.33-5.03,22.62-28.9,149.22-32.04,171.84v-.31c-.63,4.08-.94,8.17-.94,11.94,0,10.05,3.14,16.65,14.45,16.65,1.89,0,2.51.94,2.2,2.83-.31,2.51-1.26,5.03-1.57,7.54-.31,2.2-1.88,3.14-3.77,3.46-11.31-.94-23.56-1.57-35.18-1.57s-23.88.63-35.81,1.57c-.94,0-2.2-.63-1.88-2.51Z"/>
    <path d="M457.08,285.04c1.57,16.34,2.83,32.36,4.71,48.69l7.54,63.14c2.2,16.65,9.11,23.56,20.11,23.56,1.57,0,1.89,1.57,1.89,2.51l-1.89,7.54c-.63,2.2-2.2,3.46-4.08,3.77-10.68-.63-24.19-1.26-37.38-1.26-10.05,0-19.48,1.26-28.27,1.26-2.2,0-2.83-1.57-2.51-3.46l1.57-6.6c.63-2.51,1.88-3.77,4.4-3.77,10.05,0,12.25-5.34,12.25-13.51,0-3.14-.31-6.28-.63-10.05,0-1.26-.31-2.83-.31-4.4l-.94-12.57c-.63-5.65-3.77-9.11-9.74-9.11h-42.72c-5.03,0-9.42,3.77-11.62,7.54-2.2,5.34-5.65,12.57-8.17,17.91-2.2,4.4-3.14,8.8-3.14,11.94,0,8.17,5.03,12.25,16.65,12.25,1.57,0,1.89,1.57,1.89,2.51l-1.89,7.54c-.63,2.2-2.2,3.46-4.08,3.77-10.68-.94-21.68-1.57-31.73-1.57s-21.36.63-32.04,1.57c-.94,0-2.2-.63-1.57-2.51l1.88-7.54c.63-2.51,1.88-3.77,4.4-3.77,14.45,0,25.45-13.82,32.99-28.27l58.75-121.26c3.14-8.17,2.2-14.45-7.23-14.45-.94,0-2.2-.94-2.2-2.51l2.2-7.23c.94-2.51,1.88-3.77,3.77-4.08,6.91.63,16.96.94,25.76.94,10.05,0,20.11-.31,24.19-.94,1.57,0,2.83,1.88,3.46,3.46l3.77,38.95ZM424.09,263.99l-37.7,80.74c-3.46,7.23-1.88,10.05,6.28,10.05h29.53c6.91,0,9.42-2.83,9.11-9.74l-3.77-50.26-3.46-30.79Z"/>
    <path d="M569.54,430.49c-1.26,2.51-3.14,3.46-5.65,3.77-3.46-.31-9.42-.31-13.51-.31-5.97,0-14.45,0-20.11.31-1.26,0-2.2-1.26-2.51-3.46-.94-9.42-1.57-19.79-2.2-32.04-.94-15.39-1.88-33.93-4.08-59.37-1.26-13.51-3.14-28.9-5.65-46.81l-1.89-12.88v.31c-2.2-16.65-9.11-23.56-20.11-23.56-1.57,0-1.88-1.57-1.88-2.51l1.88-7.54c.63-2.2,2.2-3.46,4.08-3.77,10.68.63,24.5,1.26,38.01,1.26,10.37,0,21.05-.31,29.84-1.26.94,0,2.2.63,1.57,2.51l-1.88,7.54c-.63,2.51-1.88,3.77-4.4,3.77-10.68,0-13.19,6.28-13.19,16.02,0,3.46.31,7.85.63,12.57l8.17,97.07,2.2,21.36h4.71c17.91-39.9,39.58-82.31,56.55-122.83,5.65-13.51,2.51-24.19-13.51-24.19-1.57,0-1.88-1.57-1.88-2.51l1.88-7.54c.63-2.2,2.2-3.46,4.08-3.77,11,1.26,21.68,1.57,31.73,1.57s20.73-.31,32.04-1.57c.94,0,2.2.63,1.57,2.51l-1.88,7.54c-.63,2.51-1.88,3.77-4.4,3.77-15.08,0-25.76,12.57-32.99,28.27l-67.23,145.76Z"/>
    <path d="M654.67,431.75l1.88-8.48c.63-2.2,1.57-2.83,4.08-2.83,13.51,0,18.85-13.82,22.3-28.27,5.03-22.62,15.39-84.19,18.53-106.5.63-3.77.94-7.85.94-11.31,0-10.37-3.14-17.28-14.45-17.28-.94,0-2.51-.31-2.2-2.51l1.57-8.48c.31-2.2,2.2-3.14,4.08-3.46,20.42.94,39.9,1.26,59.69,1.26s39.27-.31,60-1.26c3.14-.31,5.03.94,5.97,3.46l15.71,49.01c.31,2.51-1.88,3.77-5.03,3.77s-6.28-.63-8.17-4.08c-10.05-18.22-27.02-37.7-53.41-37.7h-7.85c-13.82,0-18.85,12.57-22.3,27.33-2.2,10.05-5.97,28.59-7.23,36.75-1.26,6.6.94,10.05,8.17,10.05h18.53c7.23,0,14.45-5.97,16.02-12.25l1.26-5.03c.63-2.2,1.88-3.77,4.08-3.77h11.62c.94,0,2.2.63,2.2,2.2-4.4,15.71-8.8,38.64-9.42,53.72-.63,2.2-2.2,3.14-4.08,3.14h-11.62c-1.88,0-2.51-.63-2.2-2.51l.94-5.66c1.26-7.54-3.14-14.76-13.19-14.76h-17.59c-6.28,0-9.42,2.83-10.37,8.8-.94,4.4-4.71,27.96-5.65,35.81-2.2,16.02.31,28.59,26.39,28.59h9.74c24.82,0,49.32-26.39,60.32-45.87,1.57-2.83,4.4-5.34,9.74-5.34,3.77,0,4.08,1.88,3.46,3.14l-24.19,59.06c-1.26,2.51-3.46,3.77-6.28,3.77-24.5-.94-48.38-1.57-72.25-1.57-21.99,0-44.29.63-67.54,1.57-.94,0-2.83-.31-2.2-2.51Z"/>
    <path d="M969.75,433h-6.28c-2.83,0-4.4-.63-5.65-3.14-1.57-5.97-36.75-110.89-59.37-161.47-7.85,33.93-18.54,100.84-21.68,123.77-.31,3.46-.94,11.31-.94,10.37,0,10.68,4.4,17.91,21.99,17.91,1.88,0,2.51.94,2.2,2.83-.31,2.51-1.26,5.03-1.57,7.54-.31,2.2-1.89,3.14-3.77,3.46-11.31-.94-23.56-1.57-35.18-1.57s-24.19.63-35.81,1.57c-.94,0-2.2-.63-1.88-2.51.31-2.51,1.26-5.34,1.57-7.85.31-2.51,1.57-3.46,4.08-3.46,17.59,0,26.39-11.31,29.84-27.33,5.03-22.3,15.71-85.45,18.85-108.38.31-3.14.63-6.28.63-9.42,0-11.31-4.08-18.85-21.68-18.85-.94,0-2.51-.31-2.2-2.51.31-2.51,1.26-5.34,1.57-7.85.31-2.2,1.88-3.14,3.77-3.46,5.65.63,20.11,1.57,35.18,1.57,10.05,0,21.05-.31,29.84-1.57,3.77,0,5.66.94,6.6,3.46l49.01,134.14c4.71-25.13,14.14-79.48,16.33-95.5v.31c.63-3.46.94-6.91.94-10.05,0-11.31-4.71-18.53-21.99-18.53-.94,0-2.51-.31-2.2-2.51.31-2.51,1.26-5.34,1.57-7.85.31-2.2,1.89-3.14,3.77-3.46,10.68,1.26,22.93,1.57,34.56,1.57s24.19-.31,36.44-1.57c1.26,0,2.2.94,1.88,2.83-.31,2.51-1.26,5.03-1.57,7.54s-1.57,3.46-4.08,3.46c-17.91,0-26.7,11.31-29.84,27.33-9.74,41.15-19.48,104.92-24.82,145.76-.94,3.14-3.77,3.14-20.11,3.46Z"/>
  </g>
  <path d="M1097.7,313.95c34.39-68.02,227.88-9.95,185.13-54-34.66-18.05-5.03-16.23-25.54-34.77,9.36-17.03-14.87-16.12-5.54-30.74-4.83-11.73-15.81-6.2-5.17-22.07-4.11-8.85-23.58-24.74-11.72-38.19-2.37-1.83-4.85-3.07-7.97-3.25-33.81-3.68-86.62,2.78-113.01-16.14,12.59-5.39,29.93-5.69,39.59-15.54-34.59,5.65-64.69-1.87-91.69-15.9,41.42-7.83-22.64-15.97-34.81-16.87,41.11-4.62,95.62,10.33,134.9,14.57-32.8-15.91-82.52-25.67-117.76-40.38-63.79-28.3,96.4,24.97,122.08,30.43,147.14,40.38-88.7-33.69-104.6-71.12,21.21,12.94,199.74,102.84,177.97,80.09-32.15-16.63-68.46-34.67-94.04-60.8,0,0-11.56-11.38-11.56-11.38,2.72-.8,4.5.03,6.27,1.47,70.97,57.42,125.89,80.96,164.14,93.21,62.33,12.02,131.24,22.85,194.6,32.37,30.49,4.48,89.5,5.74,72.04,57.63-3.85,11.17-.15,21.35,1.21,31,5.22,24.44,72.53,8.55,95.67,20.27,45.68-1.6,69.2,36.89,105.93,49.8,48.03,23.82,59.24,68.05-15.61,45.29,2.45,7.22-8.42,2.07-12.29,2.74-24.95-7.84-31.15,4.84-43.56,10.21-33.58,14.29,22.28,30.38,32.05,40.32,37.92,24.34,28.07,89.15,33.32,137.14-1.4,47.98,11.93,108.53,18.05,145.7-9.51-7.67-16.38-18.55-20.84-31.26-.02-.07-5.72-29.65-6.17-18.16-1.22,25.16-.89,50.04,2.19,73.59,8.16,47.41-11.34,24.31-21.76,3.39-8.4-29.39-5.53-39.81-11.69-5.22-1.93,10.84-5.87,45.33-16.28,51.77-19-12.21-22.31-41.54-15.07-69.2-14.46,20.83-52.68,118.85-59.02,46.28-.73-9.4,29.66-76.71,9.84-49.48-19.09,30-77.69,101.13-65.24,30.76,3.83-8.51,7.92-16.92,12.8-26.04-10.46,6.35-24.93,17.05-28.31,1.56-3.07-13.52-2.18-29.1,1.2-45.29-18.8,9.19-24.07-4.77-27.74-19.43-13.49-24.39,15.71-59.31,37-79.73,57.05-32.35-27.17-6.43-33.65-32.87-6.09-6.46-11.43-12.81-13.7-22.77-8.58-1.7-19.45-3.74-23.21-11.87-18.61-20.08-38.29-46.55-68.97-46.76-20.32-8.56-58.5-7.25-67.31-23.15-4.91-16.7-29.38-6.47-43.35-4.9-86.32,14.73-178.77,36.2-257.02,15.38-27.96-7.99-12.32-13.9-25.96-27.13-6.28-6.09,15.3-18.06,8.16-23.34,9.59-4.63,2.54-14.99,17.98-26.65,8.69-9.2,20.32-10.67,28.05-20.56ZM1593.21,518.11c8.95,4.44,48.53-33.99,23.42-18.03-9.07,11.88-20.08,8.92-23.42,18.03Z"/>
  <g>
    <path d="M1046.57,462.3c14.91,0,27.59,2.33,38.03,6.97,10.44,4.65,18.42,11.41,23.95,20.26,5.53,8.86,8.29,19.7,8.29,32.5s-2.76,23.64-8.29,32.5c-5.53,8.86-13.51,15.62-23.95,20.26-10.44,4.65-23.12,6.97-38.03,6.97h-32.63v54.21h-53.68v-173.68h86.32ZM1037.88,542.82c7.9,0,14.03-1.71,18.42-5.13,4.38-3.42,6.58-8.64,6.58-15.66s-2.2-12.24-6.58-15.66c-4.39-3.42-10.53-5.13-18.42-5.13h-23.95v41.58h23.95Z"/>
    <path d="M1221.83,459.66c18.07,0,33.55,3.55,46.45,10.66,12.89,7.1,22.8,17.33,29.74,30.66,6.93,13.33,10.39,29.39,10.39,48.16s-3.47,34.83-10.39,48.16c-6.93,13.33-16.84,23.55-29.74,30.66-12.9,7.11-28.38,10.66-46.45,10.66s-33.38-3.55-46.45-10.66c-13.07-7.11-23.12-17.32-30.13-30.66-7.02-13.33-10.53-29.38-10.53-48.16s3.51-34.82,10.53-48.16c7.01-13.33,17.06-23.55,30.13-30.66,13.07-7.11,28.55-10.66,46.45-10.66ZM1221.83,500.72c-7.2,0-13.12,1.8-17.76,5.39-4.65,3.6-8.16,8.91-10.53,15.92-2.37,7.02-3.55,16.05-3.55,27.11s1.18,19.87,3.55,26.97c2.37,7.11,5.88,12.46,10.53,16.05,4.65,3.6,10.57,5.39,17.76,5.39s12.89-1.8,17.63-5.39c4.74-3.59,8.24-8.95,10.53-16.05,2.28-7.11,3.42-16.09,3.42-26.97s-1.14-20.09-3.42-27.11c-2.28-7.01-5.79-12.32-10.53-15.92-4.74-3.59-10.62-5.39-17.63-5.39Z"/>
    <path d="M1404.19,459.66c16.49,0,31.14,2.24,43.95,6.71,12.8,4.47,24.03,11.27,33.68,20.39l-23.42,34.47c-7.89-6.67-16.27-11.88-25.13-15.66-8.86-3.77-18.64-5.66-29.34-5.66-5.44,0-9.83.53-13.16,1.58-3.33,1.05-5.75,2.5-7.24,4.34-1.49,1.84-2.24,3.91-2.24,6.18,0,2.81,1.71,5.09,5.13,6.84,3.42,1.76,8.2,3.33,14.34,4.74l26.32,6.05c17.54,4.04,30.61,9.96,39.21,17.76,8.59,7.81,12.89,18.47,12.89,31.97s-3.29,24.12-9.87,32.89c-6.58,8.78-15.57,15.35-26.97,19.74-11.41,4.38-24.3,6.58-38.68,6.58-11.41,0-22.5-1.14-33.29-3.42-10.79-2.28-20.66-5.57-29.61-9.87-8.95-4.3-16.67-9.43-23.16-15.39l23.16-35.53c4.74,4.56,10.53,8.64,17.37,12.24,6.84,3.6,14.12,6.45,21.84,8.55,7.72,2.1,15.17,3.16,22.37,3.16,5.09,0,9.25-.48,12.5-1.45,3.24-.96,5.57-2.32,6.97-4.08,1.4-1.75,2.11-3.86,2.11-6.32,0-2.98-1.14-5.39-3.42-7.24-2.28-1.84-6.58-3.46-12.89-4.87l-28.95-6.58c-9.47-2.1-18.25-5-26.32-8.68-8.07-3.68-14.52-8.82-19.34-15.39-4.83-6.58-7.24-15.22-7.24-25.92,0-11.4,3.07-21.49,9.21-30.26,6.14-8.77,15.09-15.61,26.84-20.53,11.75-4.91,25.88-7.37,42.37-7.37Z"/>
  </g>
</svg>